<?xml version="1.0" encoding="UTF-8"?><svg id="Layer_2" xmlns="http://www.w3.org/2000/svg" width="32" height="32" xmlns:xlink="http://www.w3.org/1999/xlink" viewBox="0 0 32 32"><defs><linearGradient id="linear-gradient" x1="16.04" y1="15.78" x2="21.34" y2="15.78" gradientUnits="userSpaceOnUse"><stop offset="0" stop-color="#fbb03b"/><stop offset="1" stop-color="#f7931e"/></linearGradient></defs><g id="Layer_1-2"><path d="M18.5,16.51c1.73-.52,3.46-.29,4.88.54V6.91H1.81v18.62c0,.33.27.59.59.59h13.59c-2.59-2.76-2.01-7.4,1.75-9.32.24-.12.5-.23.76-.31Z" fill="#606aea" stroke-width="0"/><path d="M8.64,3.77H1.91c-.06,0-.11.15-.11.34v3.19h6.94v-3.19c0-.19-.05-.34-.11-.34Z" fill="#29abe2" opacity=".5" stroke-width="0"/><path d="M11.22,14.45c0,.17-.13.31-.29.31h-6.47c-.16,0-.3-.13-.3-.3v-4.9c0-.16.13-.3.3-.3h6.47c.16,0,.3.13.3.3v4.89h0Z" fill="#00a2f3" opacity=".42" stroke-width="0"/><path d="M15.17,20.64H4.46c-.16,0-.3.13-.3.3v2.94c0,.16.13.3.3.3h10.65c-.32-1.15-.3-2.39.07-3.53Z" fill="#00a2f3" opacity=".42" stroke-width="0"/><path d="M20.82,9.66h-7.28c-.25.16-.45-.04-.45-.28s.2-.45.45-.5h7.28c.25.06.45.26.45.5s-.2.45-.45.28Z" fill="#fff" stroke-width="0"/><path d="M20.82,11.62h-7.28c-.25-.02-.45-.22-.45-.46s.2-.45.45-.32h7.28c.25-.13.45.07.45.32s-.2.45-.45.46Z" fill="#fff" stroke-width="0"/><path d="M20.82,13.19h-7.28c-.25.19-.45,0-.45-.25s.2-.45.45-.53h7.28c.25.09.45.28.45.53s-.2.45-.45.25Z" fill="#fff" stroke-width="0"/><path d="M20.82,15.15h-7.28c-.25,0-.45-.19-.45-.44s.2-.45.45-.35h7.28c.25-.1.45.1.45.35s-.2.45-.45.44Z" fill="#fff" stroke-width="0"/><path d="M19.56,16.33H3.97c-.25.14-.45.34-.45.59s.2.45.45.2h13.15c.74-.23,1.56-.53,2.44-.78Z" fill="#fff" stroke-width="0"/><path d="M16.01,18.29H3.97c-.25,0-.45.19-.45.44s.2.45.45.35h11.35c.2-.22.43-.51.69-.78Z" fill="#fff" stroke-width="0"/><path d="M3.85,5.87c-.12,0-.23-.05-.32-.13-.08-.08-.13-.2-.13-.32s.05-.23.13-.31c.08-.08.2-.13.32-.13s.23.05.31.13c.08.08.13.2.13.31s-.05.23-.13.32c-.08.08-.2.13-.31.13Z" fill="#e26693" stroke-width="0"/><path d="M5.31,5.87c-.12,0-.23-.05-.31-.13-.08-.08-.13-.2-.13-.31s.05-.23.13-.31c.08-.08.2-.13.31-.13s.23.05.32.13c.08.08.13.2.13.31s-.05.23-.13.31c-.08.08-.2.13-.32.13Z" fill="#ffaf10" stroke-width="0"/><path d="M6.77,5.87c-.12,0-.23-.05-.31-.13-.08-.08-.13-.2-.13-.32s.05-.23.13-.31c.08-.08.2-.13.31-.13s.23.05.31.13c.08.08.13.2.13.31s-.05.23-.13.32c-.08.08-.2.13-.31.13Z" fill="#37c47a" stroke-width="0"/><path d="M23.04,3.77h-14.44v3.53h14.78v-3.19c0-.19-.15-.34-.34-.34Z" fill="#29abe2" opacity=".33" stroke-width="0"/><path d="M30.19,19.53c0,4.8-3.89,8.7-8.7,8.7s-8.7-3.89-8.7-8.7,3.89-8.7,8.7-8.7,8.7,3.89,8.7,8.7Z" fill="#1b1464" stroke-width="0"/><path d="M27.39,25.42l-5.3-5.3-5.3,5.3c-2.93-2.93-2.93-7.67,0-10.6,2.93-2.93,7.67-2.93,10.6,0,2.93,2.93,2.93,7.67,0,10.6Z" fill="#1b1464" opacity=".1" stroke-width="0"/><path d="M26.8,24.83l-5.3-5.3-5.3,5.3c-2.93-2.93-2.93-7.67,0-10.6,2.93-2.93,7.67-2.93,10.6,0,2.93,2.93,2.93,7.67,0,10.6Z" fill="#ffdb56" stroke-width="0"/><path d="M26.8,14.18c1.46,1.46,2.19,3.38,2.19,5.3h-7.49l5.3-5.3Z" fill="#06bf51" stroke-width="0"/><path d="M21.5,19.47h7.49c0,1.92-.73,3.83-2.19,5.3l-5.3-5.3Z" fill="#00d65b" stroke-width="0"/><path d="M26.63,14.23h0s-5.3,5.3-5.3,5.3v-7.49c1.92,0,3.84.73,5.3,2.19Z" fill="#ffdb56" stroke-width="0"/><path d="M21.34,12.04v7.49l-5.3-5.3c1.46-1.46,3.38-2.19,5.3-2.19Z" fill="url(#linear-gradient)" stroke-width="0"/><path d="M21.5,19.47l-5.3,5.3c-1.46-1.46-2.19-3.38-2.19-5.3h7.49Z" fill="#e7343f" stroke-width="0"/><path d="M25.06,19.53c0,1.97-1.59,3.56-3.56,3.56s-3.56-1.59-3.56-3.56,1.59-3.56,3.56-3.56,3.56,1.59,3.56,3.56Z" fill="#1b1464" stroke-width="0"/><path d="M15.34,21.09l6.66-.8-.28-1.28-6.37,2.08Z" fill="#fff" stroke-width="0"/><path d="M22.86,19.53c0,.75-.61,1.36-1.36,1.36s-1.36-.61-1.36-1.36.61-1.36,1.36-1.36,1.36.61,1.36,1.36Z" fill="#e6e6e6" stroke-width="0"/><g opacity=".38"><path d="M24.18,26.2h-.95c-.17,0-.31-.14-.31-.31v-1.99c0-.17.14-.31.31-.31h.95c.17,0,.31.14.31.31v1.99c0,.17-.14.31-.31.31Z" fill="#fff" stroke-width="0"/><path d="M22.1,26.2h-.95c-.17,0-.31-.14-.31-.31v-1.99c0-.17.14-.31.31-.31h.95c.17,0,.31.14.31.31v1.99c0,.17-.14.31-.31.31Z" fill="#fff" stroke-width="0"/><path d="M20.01,26.2h-.95c-.17,0-.31-.14-.31-.31v-1.99c0-.17.14-.31.31-.31h.95c.17,0,.31.14.31.31v1.99c0,.17-.14.31-.31.31Z" fill="#fff" stroke-width="0"/></g><rect width="32" height="32" fill="none" stroke-width="0"/></g></svg>