<svg height="490pt" viewBox="0 -24 490 489" width="490pt" xmlns="http://www.w3.org/2000/svg"><path d="m485 395.5v40h-410v-40h360v-320h50zm0 0" fill="#dff9fb"/><path d="m85 407.5h360v-320h40v-12h-50v320h-360v40h10zm0 0" fill="#c7ecee"/><path d="m435 75.5v320h-430v-390h430zm-40 283.699219v-317.398438h-350v317.5h350zm0 0" fill="#95a5a5"/><path d="m16.199219 18.199219h418.800781v-12.699219h-430v390h11.199219zm0 0" fill="#7e8c8d"/><path d="m235.601562 227.5c.5-.398438 1.097657-.699219 1.597657-1 .402343-.300781.800781-.5 1.199219-.800781 1.5 23 11.703124 44.300781 28.203124 62.199219 18-19.5 28.398438-43 28.398438-68.296876 0-6.402343-.699219-12.703124-2-18.902343 1.5-.5 3-.898438 4.5-1.398438 1.5-.402343 3-.902343 4.601562-1.300781 1 12.5 4.296876 24.5 9.597657 35.898438 5.300781 11.300781 12.601562 22 21.601562 31.800781.5-.597657 1.097657-1.199219 1.597657-1.800781 19-21.296876 30-46.796876 30-74.296876 0-.902343 0-1.800781 0-2.800781 9.800781-.800781 19.800781-1.199219 30-1.199219v173.699219h-188c-14-16.101562-21.898438-34.300781-21.898438-53.5 0-1 0-1.902343.101562-2.902343 0-.199219 0-.398438 0-.597657 0-.402343 0-.800781.097657-1.300781 0-.5.101562-1 .101562-1.5.097657-.601562.097657-1.199219.199219-1.800781 0-.300781.101562-.699219.101562-1 .097657-.699219.199219-1.398438.296876-2 .101562-.398438.101562-.800781.203124-1.199219.398438-2.101562.796876-4.199219 1.398438-6.199219.101562-.5.300781-1 .398438-1.5.300781-1.101562.703124-2.199219 1-3.300781.101562-.398438.300781-.800781.402343-1.199219.199219-.5.398438-1 .597657-1.5.101562-.402343.300781-.800781.5-1.199219.601562-1.601562 1.300781-3.101562 2.101562-4.703124.199219-.5.398438-1 .699219-1.398438.902343-1.800781 1.902343-3.5 2.902343-5.300781.199219-.300781.398438-.597657.597657-.898438.402343-.601562.699219-1.199219 1.101562-1.800781.300781-.398438.5-.800781.800781-1.101562 1.097657-1.597657 2.199219-3.296876 3.398438-4.898438 1.101562-1.5 2.300781-3 3.601562-4.5.597657-.699219 1.199219-1.5 1.898438-2.199219 1.601562-1.902343 3.398438-3.699219 5.199219-5.5l1.199219-1.199219c1.203124-1.203124 2.402343-2.300781 3.703124-3.402343.398438-.398438.796876-.800781 1.296876-1.097657 1.300781-1.101562 2.601562-2.300781 3.902343-3.402343.398438-.398438.898438-.699219 1.398438-1.097657.800781-.601562 1.601562-1.300781 2.402343-1.902343 1.097657-.800781 2.097657-1.597657 3.199219-2.398438.5-.402343 1-.699219 1.398438-1 .5-.402343 1-.699219 1.5-1s1-.699219 1.5-1c.5-.402343 1-.699219 1.5-1-.300781-.199219-.199219-.300781-.097657-.300781zm0 0" fill="#58a67e"/><g fill="#4a936b"><path d="m335.699219 262.898438c2.402343 3.101562 5 6.203124 7.699219 9.101562.5-.601562 1.101562-1.199219 1.601562-1.800781 19-21.300781 30-46.800781 30-74.300781 0-.898438 0-1.796876 0-2.796876 6.601562-.5 13.300781-.902343 20-1.101562v-6.5c-10.199219 0-20.199219.398438-30 1.199219v2.800781c0 27.101562-10.699219 52.300781-29.300781 73.398438zm0 0"/><path d="m268.898438 285.199219c2.402343 3.101562 4.902343 6.199219 7.703124 9.199219 18-19.5 28.398438-43 28.398438-68.296876 0-6.402343-.699219-12.703124-2-18.902343.101562 0 .199219-.097657.300781-.097657-.5-3-.902343-6.101562-1.199219-9.203124-1.5.402343-3.101562.902343-4.601562 1.300781-1.5.5-3 .902343-4.5 1.402343 1.300781 6.199219 2 12.5 2 18.898438 0 24.199219-9.5 46.800781-26.101562 65.699219zm0 0"/><path d="m195 312.300781c0-1 0-1.902343.101562-2.902343 0-.199219 0-.398438 0-.597657 0-.402343 0-.800781.097657-1.300781 0-.5.101562-1 .101562-1.5.097657-.601562.097657-1.199219.199219-1.800781 0-.300781.101562-.699219.101562-1 .097657-.699219.199219-1.398438.296876-2 .101562-.398438.101562-.800781.203124-1.199219.398438-2.101562.796876-4.199219 1.398438-6.199219.101562-.5.300781-1 .398438-1.5.300781-1.101562.703124-2.199219 1-3.300781.101562-.398438.300781-.800781.402343-1.199219.199219-.5.398438-1 .597657-1.5.101562-.402343.300781-.800781.5-1.199219.601562-1.601562 1.300781-3.101562 2.101562-4.703124.199219-.5.398438-1 .699219-1.398438.902343-1.800781 1.902343-3.5 2.902343-5.300781.199219-.300781.398438-.597657.597657-.898438.402343-.601562.699219-1.199219 1.101562-1.800781.300781-.398438.5-.800781.800781-1.101562 1.097657-1.597657 2.199219-3.296876 3.398438-4.898438 1.101562-1.5 2.300781-3 3.601562-4.5.597657-.699219 1.199219-1.5 1.898438-2.199219 1.601562-1.902343 3.398438-3.699219 5.199219-5.5l1.199219-1.199219c1.203124-1.203124 2.402343-2.300781 3.703124-3.402343.398438-.398438.796876-.800781 1.296876-1.097657 1.300781-1.101562 2.601562-2.300781 3.902343-3.402343.398438-.398438.898438-.699219 1.398438-1.097657.800781-.601562 1.601562-1.300781 2.402343-1.902343 1.097657-.800781 2.097657-1.597657 3.199219-2.398438.199219-.199219.398438-.300781.699219-.5-.800781-4-1.398438-8.101562-1.699219-12.199219-.402343.296876-.800781.5-1.199219.796876-.5.300781-1.101562.703124-1.601562 1-.101562.101562-.199219.101562-.300781.203124-.5.296876-1 .699219-1.5 1-.5.398438-1 .699219-1.5 1-.5.296876-1 .699219-1.5 1-.5.296876-1 .699219-1.398438 1-1.101562.796876-2.101562 1.597657-3.199219 2.398438-.800781.601562-1.601562 1.300781-2.402343 1.898438-.5.402343-.898438.703124-1.398438 1.101562-1.300781 1.101562-2.601562 2.199219-3.902343 3.398438-.398438.402343-.796876.800781-1.296876 1.101562-1.300781 1.101562-2.5 2.300781-3.703124 3.398438-.398438.402343-.796876.800781-1.199219 1.203124-1.800781 1.796876-3.5 3.597657-5.199219 5.5-.601562.699219-1.300781 1.5-1.898438 2.199219-1.203124 1.5-2.402343 3-3.601562 4.5-1.199219 1.597657-2.398438 3.300781-3.398438 4.898438-.300781.402343-.5.800781-.800781 1.101562-.402343.597657-.699219 1.199219-1.101562 1.800781-.199219.296876-.398438.597657-.597657.898438-1 1.699219-2 3.5-2.902343 5.300781-.199219.5-.5 1-.699219 1.398438-.699219 1.5-1.398438 3.101562-2.101562 4.699219-.199219.402343-.296876.800781-.5 1.203124-.199219.5-.398438 1-.597657 1.5-.101562.398438-.300781.796876-.402343 1.199219-.398438 1.097657-.699219 2.199219-1 3.300781-.097657.5-.296876 1-.398438 1.5-.601562 2.097657-1 4.097657-1.398438 6.199219-.101562.398438-.101562.800781-.203124 1.199219-.097657.699219-.199219 1.398438-.296876 2-.101562.300781-.101562.699219-.101562 1-.101562.601562-.101562 1.199219-.199219 1.800781-.101562.5-.101562 1-.101562 1.5 0 .398438-.097657.800781-.097657 1.300781v.597657c0 1-.101562 1.902343-.101562 2.902343 0 19.199219 7.898438 37.398438 21.898438 53.5h4.703124c-10.703124-14.300781-16.601562-30.203124-16.601562-46.800781zm0 0"/></g><path d="m206.898438 359.199219h-161.898438v-122.5c18.199219-7.398438 38.5-11.597657 60-11.597657 37.601562 0 71.699219 12.699219 96.800781 33.398438-1.199219 1.601562-2.402343 3.300781-3.402343 4.898438-.296876.402343-.5.800781-.796876 1.101562-.402343.601562-.703124 1.199219-1.101562 1.800781-.199219.300781-.398438.597657-.601562.898438-1 1.699219-2 3.5-2.898438 5.300781-.199219.5-.5 1-.699219 1.398438-.699219 1.5-1.402343 3.101562-2.101562 4.703124-.199219.398438-.300781.796876-.5 1.199219-.199219.5-.398438 1-.597657 1.5-.101562.398438-.300781.800781-.402343 1.199219-.398438 1.101562-.699219 2.199219-1 3.300781-.097657.5-.300781 1-.398438 1.5-.601562 2.097657-1 4.097657-1.402343 6.199219-.097657.398438-.097657.800781-.199219 1.199219-.097657.699219-.199219 1.402343-.300781 2-.097657.300781-.097657.699219-.097657 1-.101562.601562-.101562 1.199219-.199219 1.800781-.101562.5-.101562 1-.101562 1.5 0 .398438-.101562.800781-.101562 1.300781v.597657c0 1-.097657 1.902343-.097657 2.902343.199219 19.097657 8.097657 37.300781 22.097657 53.398438zm0 0" fill="#82ab41"/><path d="m55.601562 250c18.199219-7.398438 38.5-11.601562 60-11.601562 31.398438 0 60.296876 8.902343 83.597657 23.800781.902343-1.300781 1.699219-2.5 2.699219-3.800781-25.097657-20.699219-59.296876-33.398438-96.796876-33.398438-21.5 0-41.800781 4.199219-60 11.601562v122.597657h10.597657zm0 0" fill="#729332"/><path d="m145 145.5c0 16.570312-13.429688 30-30 30s-30-13.429688-30-30 13.429688-30 30-30 30 13.429688 30 30zm0 0" fill="#fcd884"/><path d="m93.699219 155.5c0-16.601562 13.402343-30 30-30 6.699219 0 12.800781 2.199219 17.800781 5.800781-5.101562-9.402343-15-15.800781-26.5-15.800781-16.601562 0-30 13.398438-30 30 0 9.898438 4.800781 18.699219 12.199219 24.199219-2.199219-4.300781-3.5-9.097657-3.5-14.199219zm0 0" fill="#eabf6a"/><path d="m333.398438 113.5c9.703124 10.5 17.402343 22 22.800781 34.300781 5.402343 12.300781 8.402343 25.398438 8.800781 38.898438v2.800781c0 27.398438-11 52.898438-30 74.300781-.5.597657-1 1.199219-1.601562 1.800781-9-9.800781-16.296876-20.402343-21.597657-31.800781-5.300781-11.402343-8.601562-23.402343-9.601562-35.902343-.199219-2.796876-.398438-5.597657-.398438-8.398438 0-28.199219 11.597657-54.398438 31.597657-76zm0 0" fill="#91dfab"/><path d="m321.699219 238.699219c-5.300781-11.398438-8.597657-23.398438-9.597657-35.898438-.203124-2.800781-.402343-5.601562-.402343-8.402343 0-26.796876 10.5-51.796876 28.699219-72.796876-2.199219-2.800781-4.5-5.5-7-8.203124-20 21.703124-31.597657 47.800781-31.597657 76 0 2.800781.097657 5.601562.398438 8.402343 1 12.5 4.300781 24.5 9.601562 35.898438 5.300781 11.300781 12.597657 22 21.597657 31.800781.5-.601562 1.101562-1.199219 1.601562-1.800781.398438-.5.898438-1 1.300781-1.5-5.902343-7.398438-10.800781-15.199219-14.601562-23.5zm0 0" fill="#7dc694"/><path d="m295 219.5c0 25.398438-10.398438 48.898438-28.398438 68.300781-16.5-17.902343-26.601562-39.199219-28.203124-62.199219-.097657-2-.199219-4.101562-.199219-6.101562 0-25.398438 10.402343-48.898438 28.402343-68.398438 6.699219 7.296876 12.398438 15.097657 16.796876 23.398438 4.5 8.300781 7.703124 17 9.601562 26.101562 1.300781 6.199219 2 12.5 2 18.898438zm0 0" fill="#82ab41"/><path d="m248.398438 231.898438c-.097657-2-.199219-4.097657-.199219-6.097657 0-24.199219 9.5-46.699219 25.902343-65.601562-2.300781-3.097657-4.902343-6.097657-7.5-9-18 19.5-28.402343 43-28.402343 68.402343 0 2 .101562 4.097657.199219 6.097657 1.5 23 11.703124 44.300781 28.203124 62.199219.796876-.898438 1.699219-1.796876 2.5-2.796876-12.101562-15.902343-19.402343-34-20.703124-53.203124zm0 0" fill="#729332"/><path d="m45 236.699219v-194.898438h350v143.699219c-10.199219 0-20.199219.398438-30 1.199219-.398438-13.597657-3.398438-26.597657-8.800781-38.898438-5.398438-12.300781-13.097657-23.800781-22.800781-34.300781-20 21.699219-31.597657 47.800781-31.597657 76 0 2.800781.097657 5.601562.398438 8.398438-1.5.402343-3.097657.902343-4.597657 1.300781-1.5.5-3 .902343-4.5 1.402343-1.902343-9.101562-5.203124-17.800781-9.601562-26.101562-4.5-8.300781-10.101562-16.101562-16.800781-23.398438-18 19.5-28.398438 43-28.398438 68.296876 0 2 .097657 4.101562.199219 6.101562-.398438.300781-.800781.5-1.199219.800781-.5.300781-1.101562.699219-1.601562 1-.097657.097657-.199219.097657-.300781.199219-.5.300781-1 .699219-1.5 1s-1 .699219-1.5 1-1 .699219-1.5 1-1 .699219-1.398438 1c-1.101562.800781-2.101562 1.601562-3.199219 2.398438-.800781.601562-1.601562 1.203124-2.402343 1.902343-.398438.398438-.898438.699219-1.398438 1.097657-1.300781 1.101562-2.601562 2.203124-3.898438 3.402343-.402343.398438-.800781.699219-1.300781 1.097657-1.300781 1.101562-2.5 2.300781-3.699219 3.402343-.402343.398438-.800781.800781-1.203124 1.199219-1.796876 1.800781-3.5 3.601562-5.199219 5.5-.597657.699219-1.300781 1.5-1.898438 2.199219-1.199219 1.5-2.402343 3-3.601562 4.5-25.097657-20.699219-59.300781-33.398438-96.800781-33.398438-21.398438.300781-41.699219 4.398438-59.898438 11.898438zm100-91.199219c0-16.601562-13.398438-30-30-30s-30 13.398438-30 30 13.398438 30 30 30 30-13.398438 30-30zm0 0" fill="#86dcfd"/><path d="m56.199219 54.800781h338.800781v-13h-350v194.898438c3.699219-1.5 7.398438-2.800781 11.199219-4.097657zm0 0" fill="#6fbfd8"/><path d="m367.398438 160.800781c-5.398438-12.300781-13.097657-23.800781-22.796876-34.300781-.101562.101562-.203124.300781-.402343.398438 4.699219 6.703124 8.699219 13.703124 11.902343 20.902343 5.398438 12.300781 8.398438 25.398438 8.796876 38.898438 3.300781-.300781 6.601562-.5 9.902343-.699219-1.300781-8.601562-3.902343-17.101562-7.402343-25.199219zm0 0" fill="#6fbfd8"/><path d="m294.601562 187.5c-4.5-8.300781-10.101562-16.101562-16.800781-23.398438-.101562.199219-.300781.296876-.402343.5 2.203124 3.199219 4.203124 6.5 6.101562 9.898438 4.5 8.300781 7.699219 17 9.601562 26.101562 1.5-.5 3-.902343 4.5-1.402343.699219-.199219 1.398438-.398438 2.199219-.597657-1.5-3.800781-3.199219-7.5-5.199219-11.101562zm0 0" fill="#6fbfd8"/><path d="m150 145.5c0-19.300781-15.699219-35-35-35s-35 15.699219-35 35 15.699219 35 35 35 35-15.699219 35-35zm-60 0c0-13.800781 11.199219-25 25-25s25 11.199219 25 25-11.199219 25-25 25-25-11.199219-25-25zm0 0"/><path d="m395 364.199219c2.800781 0 5-2.199219 5-5v-317.398438c0-2.800781-2.199219-5-5-5h-350c-2.800781 0-5 2.199219-5 5v317.5c0 2.800781 2.199219 5 5 5h350zm-185.800781-10c-12.800781-15.300781-19.199219-31.597657-19.199219-48.5 0-.898438 0-1.800781.101562-2.699219v-.601562c0-.398438 0-.699219.097657-1.097657 0-.402343.101562-.902343.101562-1.300781v-.101562c0-.5.097657-1 .199219-1.5 0-.097657 0-.097657 0-.199219 0-.199219 0-.5.101562-.699219v-.101562c.097657-.597657.199219-1.199219.296876-1.796876l.101562-.402343c0-.199219.101562-.5.101562-.699219v-.101562c.296876-2 .796876-3.898438 1.296876-5.796876v-.101562c.101562-.398438.203124-.800781.300781-1.199219v-.101562c.300781-1.097657.601562-2.097657 1-3l.5-1.398438c.101562-.402343.300781-.699219.402343-1.101562.097657-.398438.296876-.699219.398438-1.097657.601562-1.402343 1.199219-2.800781 1.898438-4.402343.203124-.398438.402343-.800781.601562-1.300781.800781-1.699219 1.699219-3.296876 2.699219-5 .199219-.296876.300781-.597657.5-.796876.300781-.5.699219-1.101562 1-1.601562l.800781-1.199219c1.101562-1.699219 2.199219-3.199219 3.199219-4.601562 1.101562-1.5 2.300781-2.898438 3.402343-4.300781.097657-.097657.199219-.199219.296876-.296876.402343-.5.800781-1 1.203124-1.402343.097657-.097657.199219-.199219.296876-.300781 1.5-1.699219 3.203124-3.5 4.902343-5.296876l.097657-.101562c.101562-.101562.203124-.199219.300781-.300781l.5-.5c.101562-.097657.199219-.199219.300781-.300781 1.101562-1 2.199219-2.097657 3.601562-3.296876.097657-.101562.199219-.203124.296876-.203124.203124-.199219.402343-.398438.601562-.597657.101562-.101562.199219-.199219.300781-.300781 1.097657-1 2.300781-2 3.800781-3.199219.398438-.300781.796876-.699219 1.199219-1l.097657-.101562.101562-.097657c.699219-.601562 1.398438-1.101562 2.101562-1.703124l.097657-.097657c.902343-.699219 2-1.5 3-2.300781l.101562-.101562c.398438-.296876.800781-.597657 1.199219-.898438.101562 0 .101562-.101562.199219-.101562.199219-.097657.402343-.296876.5-.398438 3.199219 20.398438 13 39.898438 28.601562 56.800781.300781.300781.699219.597657 1.097657.898438v33.300781c0 2.800781 2.203124 5 5 5 2.800781 0 5-2.199219 5-5v-38.5c17-20.101562 26-43.398438 26-67.5 0-1.5 0-3.101562-.097657-4.601562 1.699219 7.101562 4.199219 14.203124 7.398438 21 5.5 11.703124 13 22.800781 22.5 33 .101562.101562.199219.203124.300781.203124v56.398438c0 2.800781 2.199219 5 5 5s5-2.199219 5-5v-59.898438c19.199219-22.101562 29.5-47.703124 30-74.203124 6.601562-.5 13.300781-.699219 20-.796876v163.699219zm150.800781-164.699219c0 21.101562-6.898438 41.601562-20 60v-34c0-2.800781-2.199219-5-5-5s-5 2.199219-5 5v38.199219c-5.5-7.097657-10.101562-14.5-13.699219-22.097657-5.101562-11-8.199219-22.5-9.199219-34.101562-.203124-2.699219-.300781-5.300781-.300781-8 0-24.398438 9.199219-48 26.597657-68.5 7.703124 9 13.800781 18.699219 18.203124 28.800781 5.199219 12 8 24.398438 8.398438 37.097657zm-71.898438 12.101562c1.199219 5.898438 1.898438 11.898438 1.898438 17.898438 0 21.601562-8.101562 42.5-23.398438 60.800781-13.902343-16.5-21.902343-35.402343-23.203124-54.902343v-.097657c-.097657-1.902343-.199219-3.902343-.199219-5.800781 0-21.601562 8.101562-42.601562 23.402343-60.800781 4.898438 5.800781 9 11.902343 12.398438 18.199219 4.300781 8 7.398438 16.300781 9.101562 24.703124zm-238.101562-154.800781h340v133.699219c-6.800781.101562-13.601562.398438-20.300781.800781-.898438-12.101562-3.898438-24.101562-8.898438-35.601562-5.5-12.699219-13.5-24.699219-23.699219-35.699219-.902343-1-2.300781-1.601562-3.703124-1.601562-1.398438 0-2.699219.601562-3.699219 1.601562-21.5 23.300781-32.898438 50.800781-32.898438 79.398438 0 1.601562 0 3.101562.097657 4.703124-.097657 0-.199219.097657-.296876.097657-2-7.5-5-15-8.800781-22.097657-4.601562-8.601562-10.5-16.800781-17.601562-24.402343-.898438-1-2.300781-1.597657-3.699219-1.597657s-2.699219.597657-3.699219 1.597657c-19.402343 21.101562-29.699219 45.902343-29.699219 71.699219 0 1.203124 0 2.300781.097657 3.5-.097657.101562-.300781.203124-.398438.300781 0 0 0 0-.101562 0l-.199219.101562s-.101562 0-.101562.097657c-.5.300781-1 .703124-1.5 1l-.199219.101562c-.398438.199219-.699219.5-1 .699219l-.300781.199219c-.5.300781-1 .703124-1.5 1-.5.300781-1 .703124-1.5 1.101562 0 0 0 0-.097657 0-1.101562.800781-2.199219 1.699219-3.199219 2.398438 0 0 0 0-.101562 0l-.101562.101562c-.699219.601562-1.5 1.199219-2.296876 1.800781-.300781.199219-.601562.5-.800781.699219l-.5.398438c-1.5 1.300781-2.902343 2.402343-4 3.402343l-.101562.097657c-.398438.300781-.800781.703124-1.097657 1l-.101562.101562c-1.398438 1.300781-2.601562 2.398438-3.800781 3.601562l-1.199219 1.199219c-1.898438 1.898438-3.699219 3.800781-5.300781 5.699219l-.097657.101562c-.703124.699219-1.300781 1.5-1.902343 2.199219v.097657c-.199219.203124-.300781.402343-.5.601562-26.5-20.300781-60.398438-31.398438-96-31.398438-19.097657 0-37.597657 3.097657-55 9.296876v-182.097657zm0 193.300781c17.300781-6.601562 35.800781-10 55-10 33.398438 0 65.199219 10.398438 90 29.398438-.300781.398438-.5.800781-.800781 1.199219-.300781.402343-.5.800781-.800781 1.199219-.398438.601562-.796876 1.203124-1.097657 1.800781-.199219.300781-.402343.699219-.601562 1-1.097657 1.800781-2.097657 3.699219-3 5.5-.300781.5-.5 1.101562-.800781 1.5-.796876 1.699219-1.5 3.402343-2.199219 4.902343-.199219.398438-.300781.796876-.5 1.296876-.199219.402343-.300781.800781-.5 1.300781l-.097657.300781c-.203124.5-.300781.898438-.5 1.300781-.402343 1.097657-.703124 2.199219-1.101562 3.398438-.199219.601562-.300781 1.101562-.5 1.601562v.097657c-.601562 2.101562-1.101562 4.402343-1.5 6.5-.101562.300781-.101562.601562-.199219 1l-.101562.402343v.097657c-.097657.703124-.199219 1.402343-.300781 2.101562-.097657.398438-.097657.800781-.097657 1.101562-.101562.597657-.101562 1.296876-.199219 1.796876-.101562.601562-.101562 1.203124-.101562 1.703124 0 .398438-.101562.898438-.101562 1.296876v.601562c0 1-.097657 2.101562-.097657 3.101562 0 16.898438 5.597657 33.199219 16.597657 48.5h-146.398438zm0 0"/><path d="m485 70.5h-45v-65c0-2.800781-2.199219-5-5-5h-430c-2.800781 0-5 2.199219-5 5v390c0 2.800781 2.199219 5 5 5h65v35c0 2.800781 2.199219 5 5 5h410c2.800781 0 5-2.199219 5-5v-360c0-2.800781-2.199219-5-5-5zm-475-60h420v380h-420zm470 420h-400v-30h355c2.800781 0 5-2.199219 5-5v-315h40zm0 0"/></svg>